<?xml version="1.0" encoding="utf-8"?>
<!-- Generator: Adobe Illustrator 26.0.1, SVG Export Plug-In . SVG Version: 6.00 Build 0)  -->
<svg version="1.1" id="Шар_1" xmlns="http://www.w3.org/2000/svg" xmlns:xlink="http://www.w3.org/1999/xlink" x="0px" y="0px"
	 viewBox="0 0 24 24" style="enable-background:new 0 0 24 24;" xml:space="preserve">
<style type="text/css">
	.st0{fill:#FFFFFF;}
</style>
<path class="st0" d="M22.5,1.9c0.3,0.3,0.3,0.8,0,1.1l-6.9,6.9c1.7,2.3,1.6,5.5-0.5,7.6l-0.8,0.8l-2.8,4.2c-0.1,0.2-0.3,0.3-0.6,0.3
	c-0.2,0-0.4-0.1-0.6-0.2l-8.5-8.5c-0.2-0.2-0.2-0.4-0.2-0.6s0.1-0.4,0.3-0.6l4.2-2.8l0.8-0.8c2.1-2.1,5.3-2.2,7.6-0.5l6.9-6.9
	C21.7,1.6,22.2,1.6,22.5,1.9z M7.6,10.8l6,6l0.4-0.4c1.7-1.7,1.7-4.4,0-6c-1.7-1.7-4.4-1.7-6,0L7.6,10.8z M6.4,11.7l-3,2l7.2,7.2
	l2-3L6.4,11.7z"/>
</svg>
