<?xml version="1.0" encoding="utf-8"?>
<!-- Generator: Adobe Illustrator 26.0.1, SVG Export Plug-In . SVG Version: 6.00 Build 0)  -->
<svg version="1.1" id="Livello_1" xmlns="http://www.w3.org/2000/svg" xmlns:xlink="http://www.w3.org/1999/xlink" x="0px" y="0px"
	 viewBox="0 0 47.4 36.7" style="enable-background:new 0 0 47.4 36.7;" xml:space="preserve">
<style type="text/css">
	.st0{fill:none;stroke:#FFFFFF;stroke-width:1.3;stroke-miterlimit:10;}
	.st1{fill:none;stroke:#FFFFFF;stroke-width:1.3;stroke-linecap:round;stroke-miterlimit:10;}
</style>
<ellipse class="st0" cx="9.7" cy="5.4" rx="8.8" ry="3.7"/>
<ellipse class="st0" cx="33.2" cy="21.9" rx="8.9" ry="3.7"/>
<line class="st1" x1="0.9" y1="5.4" x2="0.9" y2="31"/>
<path class="st0" d="M18.4,5.4v25.7c0,2-3.9,3.7-8.8,3.7S0.9,33,0.9,31.1"/>
<path class="st0" d="M18.4,22.5c0,2-3.9,3.7-8.8,3.7s-8.8-1.6-8.8-3.7"/>
<path class="st0" d="M42.1,21.9V31c0,2.1-4,3.7-8.9,3.7S24.3,33,24.3,31v-9.1"/>
<path class="st0" d="M18.4,13.7c0,2-3.9,3.7-8.8,3.7s-8.7-1.6-8.7-3.7"/>
</svg>
