<?xml version="1.0" encoding="utf-8"?>
<!-- Generator: Adobe Illustrator 26.0.1, SVG Export Plug-In . SVG Version: 6.00 Build 0)  -->
<svg version="1.1" id="a5b357d0-b6bb-4b51-acaf-aaa20a4d1704"
	 xmlns="http://www.w3.org/2000/svg" xmlns:xlink="http://www.w3.org/1999/xlink" x="0px" y="0px" viewBox="0 0 35 35"
	 style="enable-background:new 0 0 35 35;" xml:space="preserve">
<style type="text/css">
	.st0{fill:#FFFFFF;}
</style>
<path class="st0" d="M20.7,34.7H3.6c-1.9,0-3.4-1.5-3.4-3.4V14.3c0-1.9,1.5-3.4,3.4-3.4h17.1c1.9,0,3.4,1.5,3.4,3.4v17.1
	C24.1,33.2,22.6,34.7,20.7,34.7z M3.6,13.4c-0.5,0-0.9,0.4-0.9,0.9v17.1c0,0.5,0.4,0.9,0.9,0.9h17.1c0.5,0,0.9-0.4,0.9-0.9V14.3
	c0-0.5-0.4-0.9-0.9-0.9H3.6z"/>
<path class="st0" d="M31.4,24.1h-8.5c-0.7,0-1.2-0.6-1.2-1.2s0.6-1.2,1.2-1.2h8.5c0.5,0,0.9-0.4,0.9-0.9V3.6c0-0.5-0.4-0.9-0.9-0.9
	H14.3c-0.5,0-0.9,0.4-0.9,0.9v8.5c0,0.7-0.6,1.2-1.2,1.2s-1.2-0.6-1.2-1.2V3.6c0-1.9,1.5-3.4,3.4-3.4h17.1c1.9,0,3.4,1.5,3.4,3.4
	v17.1C34.7,22.6,33.2,24.1,31.4,24.1z"/>
</svg>
