<?xml version="1.0" encoding="utf-8"?>
<!-- Generator: Adobe Illustrator 26.0.1, SVG Export Plug-In . SVG Version: 6.00 Build 0)  -->
<svg version="1.1" id="Шар_1" xmlns="http://www.w3.org/2000/svg" xmlns:xlink="http://www.w3.org/1999/xlink" x="0px" y="0px"
	 viewBox="0 0 48 48" style="enable-background:new 0 0 48 48;" xml:space="preserve">
<style type="text/css">
	.st0{fill:#FFFFFF;}
	.st1{fill:none;stroke:#FFFFFF;stroke-width:5;stroke-miterlimit:10;}
</style>
<path class="st0" d="M0,22.9v23.7h29.2V22.9H0z M15.6,36.7l0.6,4.5H13l0.6-4.6c-1-0.4-1.8-1.4-1.8-2.6c0-1.6,1.3-2.8,2.8-2.8
	c1.6,0,2.8,1.3,2.8,2.8C17.4,35.2,16.7,36.3,15.6,36.7z"/>
<path class="st1" d="M24.7,22.9c0,0,0,0,0-9c0-4.2,3.7-9.4,10.5-9.4c6.9,0,10.4,5.2,10.4,9.4c0,9,0,9,0,9"/>
</svg>
