<?xml version="1.0" encoding="utf-8"?>
<!-- Generator: Adobe Illustrator 26.0.1, SVG Export Plug-In . SVG Version: 6.00 Build 0)  -->
<svg version="1.1" id="Шар_1" xmlns="http://www.w3.org/2000/svg" xmlns:xlink="http://www.w3.org/1999/xlink" x="0px" y="0px"
	 viewBox="0 0 26 22.9" style="enable-background:new 0 0 26 22.9;" xml:space="preserve">
<style type="text/css">
	.st0{fill:none;stroke:#FFFFFF;stroke-width:0.85;stroke-linecap:round;stroke-linejoin:round;}
</style>
<g id="Layer_2">
	<g id="Layer_1-2">
		<path class="st0" d="M18.9,7.1L18.9,7.1c0.2-0.2,0.3-0.6,0.1-0.8c-0.3-0.4-0.7-0.8-1.1-1.2c-0.5-0.5-1-0.9-1.5-1.3
			c-0.2-0.1-0.6-0.1-0.8,0.1C12.3,1.2,8.5,0,5.6,0.6c2.3,1.3,4.5,2.9,6.6,4.6c0.6,0.5,0.9,1.3,0.9,2.1c0,0.1,0,0.2,0.1,0.3l2.1,2.1
			c0.1,0.1,0.2,0.1,0.3,0.1c0.8,0,1.6,0.3,2.1,0.9c1.8,2,3.3,4.2,4.6,6.6C22.9,14.4,21.6,10.5,18.9,7.1z"/>
		<path class="st0" d="M13.5,11.8L3.3,22c-0.7,0.7-1.7,0.7-2.4,0l0,0c-0.7-0.7-0.7-1.7,0-2.4L11.2,9.3"/>
	</g>
</g>
</svg>
