<?xml version="1.0" encoding="utf-8"?>
<!-- Generator: Adobe Illustrator 26.0.1, SVG Export Plug-In . SVG Version: 6.00 Build 0)  -->
<svg version="1.1" id="Шар_1" xmlns="http://www.w3.org/2000/svg" xmlns:xlink="http://www.w3.org/1999/xlink" x="0px" y="0px"
	 viewBox="0 0 24 24" style="enable-background:new 0 0 24 24;" xml:space="preserve">
<style type="text/css">
	.st0{fill:#FFFFFF;}
</style>
<path class="st0" d="M12.8,2c1.2,0,2.1,0.9,2.2,2l1.8,0c1.2,0,2.2,0.9,2.2,2.1l0,0.2c0,0.4-0.3,0.7-0.6,0.7l-0.1,0
	c-0.4,0-0.7-0.3-0.7-0.6l0-0.1c0-0.4-0.3-0.7-0.6-0.7l-0.1,0l-2.1,0c-0.4,0.6-1.1,1-1.9,1H9.2c-0.8,0-1.5-0.4-1.9-1l-2.1,0
	c-0.4,0-0.7,0.3-0.7,0.6l0,0.1v13.5c0,0.4,0.3,0.7,0.6,0.7l0.1,0l3,0c0.4,0,0.7,0.3,0.7,0.6l0,0.1C9,21.7,8.7,22,8.2,22l-3,0
	c-1.2,0-2.2-0.9-2.2-2.1l0-0.2V6.2C3,5.1,3.9,4.1,5.1,4l0.2,0L7,4c0.1-1.1,1.1-2,2.2-2H12.8z M18.8,8c1.2,0,2.2,0.9,2.2,2.1l0,0.2
	v9.5c0,1.2-0.9,2.2-2.1,2.2l-0.2,0h-6.5c-1.2,0-2.2-0.9-2.2-2.1l0-0.2v-9.5c0-1.2,0.9-2.2,2.1-2.2l0.2,0H18.8z M18.8,9.5h-6.5
	c-0.4,0-0.7,0.3-0.7,0.6l0,0.1v9.5c0,0.4,0.3,0.7,0.6,0.7l0.1,0h6.5c0.4,0,0.7-0.3,0.7-0.6l0-0.1v-9.5c0-0.4-0.3-0.7-0.6-0.7
	L18.8,9.5z M12.8,3.5H9.2c-0.4,0-0.7,0.3-0.7,0.7C8.5,4.7,8.8,5,9.2,5h3.5c0.4,0,0.7-0.3,0.7-0.7C13.5,3.8,13.2,3.5,12.8,3.5z"/>
</svg>
