<?xml version="1.0" encoding="utf-8"?>
<!-- Generator: Adobe Illustrator 26.0.1, SVG Export Plug-In . SVG Version: 6.00 Build 0)  -->
<svg version="1.1" id="Шар_1" xmlns="http://www.w3.org/2000/svg" xmlns:xlink="http://www.w3.org/1999/xlink" x="0px" y="0px"
	 viewBox="0 0 16 16" style="enable-background:new 0 0 16 16;" xml:space="preserve">
<style type="text/css">
	.st0{fill:#FFFFFF;}
</style>
<rect x="1" y="1" class="st0" width="1" height="1"/>
<rect x="1" y="2" class="st0" width="1" height="1"/>
<rect x="1" y="3" class="st0" width="1" height="1"/>
<rect x="3" y="3" class="st0" width="1" height="1"/>
<rect x="1" y="4" class="st0" width="1" height="1"/>
<rect x="1" y="5" class="st0" width="1" height="1"/>
<rect x="1" y="7" class="st0" width="1" height="1"/>
<rect x="1" y="8" class="st0" width="1" height="1"/>
<rect x="3" y="8" class="st0" width="1" height="1"/>
<rect x="4" y="8" class="st0" width="1" height="1"/>
<rect x="4" y="7" class="st0" width="1" height="1"/>
<rect x="5" y="7" class="st0" width="1" height="1"/>
<rect x="6" y="7" class="st0" width="1" height="1"/>
<rect x="6" y="8" class="st0" width="1" height="1"/>
<rect x="8" y="9" class="st0" width="1" height="1"/>
<rect x="8" y="10" class="st0" width="1" height="1"/>
<rect x="10" y="10" class="st0" width="1" height="1"/>
<rect x="12" y="10" class="st0" width="1" height="1"/>
<rect x="14.1" y="10" class="st0" width="1" height="1"/>
<rect x="2" y="7" class="st0" width="1" height="1"/>
<rect x="5" y="1" class="st0" width="1" height="1"/>
<rect x="7" y="1" class="st0" width="1" height="1"/>
<rect x="7" y="2" class="st0" width="1" height="1"/>
<rect x="7" y="3" class="st0" width="1" height="1"/>
<rect x="8" y="3" class="st0" width="1" height="1"/>
<rect x="8" y="4" class="st0" width="1" height="1"/>
<rect x="7" y="5" class="st0" width="1" height="1"/>
<rect x="7" y="6" class="st0" width="1" height="1"/>
<rect x="8" y="6" class="st0" width="1" height="1"/>
<rect x="8" y="7" class="st0" width="1" height="1"/>
<rect x="7" y="8" class="st0" width="1" height="1"/>
<rect x="9" y="8" class="st0" width="1" height="1"/>
<rect x="10" y="8" class="st0" width="1" height="1"/>
<rect x="11" y="8" class="st0" width="1" height="1"/>
<rect x="12" y="7" class="st0" width="1" height="1"/>
<rect x="13" y="8" class="st0" width="1" height="1"/>
<rect x="13" y="11" class="st0" width="1" height="1"/>
<rect x="11" y="9" class="st0" width="1" height="1"/>
<rect x="12" y="9" class="st0" width="1" height="1"/>
<rect x="14.1" y="9" class="st0" width="1" height="1"/>
<rect x="10" y="7" class="st0" width="1" height="1"/>
<rect x="14.1" y="7" class="st0" width="1" height="1"/>
<rect x="7" y="9" class="st0" width="1" height="1"/>
<rect x="7" y="11" class="st0" width="1" height="1"/>
<rect x="9" y="11" class="st0" width="1" height="1"/>
<rect x="11" y="11" class="st0" width="1" height="1"/>
<rect x="7" y="12" class="st0" width="1" height="1"/>
<rect x="8" y="12" class="st0" width="1" height="1"/>
<rect x="9" y="12" class="st0" width="1" height="1"/>
<rect x="10" y="12" class="st0" width="1" height="1"/>
<rect x="12" y="12" class="st0" width="1" height="1"/>
<rect x="14.1" y="12" class="st0" width="1" height="1"/>
<rect x="7" y="14" class="st0" width="1" height="1"/>
<rect x="9" y="14" class="st0" width="1" height="1"/>
<rect x="10" y="14" class="st0" width="1" height="1"/>
<rect x="14.1" y="14" class="st0" width="1" height="1"/>
<rect x="8" y="1" class="st0" width="1" height="1"/>
<rect x="5" y="2" class="st0" width="1" height="1"/>
<rect x="5" y="3" class="st0" width="1" height="1"/>
<rect x="5" y="4" class="st0" width="1" height="1"/>
<rect x="5" y="5" class="st0" width="1" height="1"/>
<rect x="2" y="1" class="st0" width="1" height="1"/>
<rect x="2" y="5" class="st0" width="1" height="1"/>
<rect x="3" y="1" class="st0" width="1" height="1"/>
<rect x="3" y="5" class="st0" width="1" height="1"/>
<rect x="4" y="1" class="st0" width="1" height="1"/>
<rect x="4" y="5" class="st0" width="1" height="1"/>
<rect x="1" y="10" class="st0" width="1" height="1"/>
<rect x="1" y="11" class="st0" width="1" height="1"/>
<rect x="1" y="12" class="st0" width="1" height="1"/>
<rect x="3" y="12" class="st0" width="1" height="1"/>
<rect x="1" y="13" class="st0" width="1" height="1"/>
<rect x="1" y="14" class="st0" width="1" height="1"/>
<rect x="5" y="10" class="st0" width="1" height="1"/>
<rect x="5" y="11" class="st0" width="1" height="1"/>
<rect x="5" y="12" class="st0" width="1" height="1"/>
<rect x="5" y="13" class="st0" width="1" height="1"/>
<rect x="8" y="13" class="st0" width="1" height="1"/>
<rect x="11" y="13" class="st0" width="1" height="1"/>
<rect x="12" y="13" class="st0" width="1" height="1"/>
<rect x="12" y="14" class="st0" width="1" height="1"/>
<rect x="5" y="14" class="st0" width="1" height="1"/>
<rect x="2" y="10" class="st0" width="1" height="1"/>
<rect x="2" y="14" class="st0" width="1" height="1"/>
<rect x="3" y="10" class="st0" width="1" height="1"/>
<rect x="3" y="14" class="st0" width="1" height="1"/>
<rect x="4" y="10" class="st0" width="1" height="1"/>
<rect x="4" y="14" class="st0" width="1" height="1"/>
<rect x="10" y="1" class="st0" width="1" height="1"/>
<rect x="10" y="2" class="st0" width="1" height="1"/>
<rect x="10" y="3" class="st0" width="1" height="1"/>
<rect x="12" y="3" class="st0" width="1" height="1"/>
<rect x="10" y="4" class="st0" width="1" height="1"/>
<rect x="10" y="5" class="st0" width="1" height="1"/>
<rect x="14.1" y="1" class="st0" width="1" height="1"/>
<rect x="14.1" y="2" class="st0" width="1" height="1"/>
<rect x="14.1" y="3" class="st0" width="1" height="1"/>
<rect x="14.1" y="4" class="st0" width="1" height="1"/>
<rect x="14.1" y="5" class="st0" width="1" height="1"/>
<rect x="11" y="1" class="st0" width="1" height="1"/>
<rect x="11" y="5" class="st0" width="1" height="1"/>
<rect x="12" y="1" class="st0" width="1" height="1"/>
<rect x="12" y="5" class="st0" width="1" height="1"/>
<rect x="13" y="1" class="st0" width="1" height="1"/>
<rect x="13" y="5" class="st0" width="1" height="1"/>
</svg>
