<?xml version="1.0" encoding="utf-8"?>
<!-- Generator: Adobe Illustrator 26.0.1, SVG Export Plug-In . SVG Version: 6.00 Build 0)  -->
<svg version="1.1" id="Шар_1" xmlns="http://www.w3.org/2000/svg" xmlns:xlink="http://www.w3.org/1999/xlink" x="0px" y="0px"
	 viewBox="0 0 576 512" style="enable-background:new 0 0 576 512;" xml:space="preserve">
<style type="text/css">
	.st0{fill:#FFFFFF;}
</style>
<path class="st0" d="M288,201c-10.6,0.2-21.1,1.8-31.2,5c4.7,8.2,7.2,17.5,7.2,27c0,30.9-25.1,56-56,56c-9.5-0.1-18.8-2.6-27-7.2
	C163.9,341,198.1,403,257.4,420c59.3,17.1,121.2-17.1,138.3-76.4s-17.1-121.2-76.4-138.3C309.1,202.4,298.6,201,288,201z
	 M572.5,298.4C518.3,192.6,410.9,121,288,121S57.7,192.6,3.5,298.4c-4.6,9.2-4.6,20,0,29.2C57.7,433.4,165.1,505,288,505
	s230.3-71.6,284.5-177.4C577.2,318.4,577.2,307.6,572.5,298.4z M288,457c-98.6,0-189.1-55-237.9-144C98.9,224,189.3,169,288,169
	s189.1,55,237.9,144C477.1,402,386.7,457,288,457z"/>
</svg>
