<?xml version="1.0" encoding="utf-8"?>
<!-- Generator: Adobe Illustrator 26.0.1, SVG Export Plug-In . SVG Version: 6.00 Build 0)  -->
<svg version="1.1" id="Шар_1" xmlns="http://www.w3.org/2000/svg" xmlns:xlink="http://www.w3.org/1999/xlink" x="0px" y="0px"
	 viewBox="0 0 64 64" style="enable-background:new 0 0 64 64;" xml:space="preserve">
<style type="text/css">
	.st0{fill:none;stroke:#FFFFFF;stroke-width:1.2;stroke-linecap:round;stroke-miterlimit:10;}
	.st1{fill:none;stroke:#FFFFFF;stroke-width:0.85;stroke-linecap:round;stroke-linejoin:round;}
</style>
<rect x="10" y="16.3" class="st0" width="32.7" height="32.7"/>
<g id="Layer_2">
	<g id="Layer_1-2">
		<path class="st1" d="M33.8,28.3L33.8,28.3c0.2-0.2,0.3-0.6,0.1-0.8c-0.3-0.4-0.7-0.8-1.1-1.2c-0.5-0.5-1-0.9-1.5-1.3
			c-0.2-0.1-0.6-0.1-0.8,0.1c-3.3-2.7-7.1-3.9-10-3.3c2.3,1.3,4.5,2.9,6.6,4.6c0.6,0.5,0.9,1.3,0.9,2.1c0,0.1,0,0.2,0.1,0.3l2.1,2.1
			c0.1,0.1,0.2,0.1,0.3,0.1c0.8,0,1.6,0.3,2.1,0.9c1.8,2,3.3,4.2,4.6,6.6C37.8,35.6,36.5,31.7,33.8,28.3z"/>
		<path class="st1" d="M28.4,33L18.2,43.2c-0.7,0.7-1.7,0.7-2.4,0l0,0c-0.7-0.7-0.7-1.7,0-2.4l10.3-10.3"/>
	</g>
</g>
</svg>
