<?xml version="1.0" encoding="utf-8"?>
<!-- Generator: Adobe Illustrator 26.0.1, SVG Export Plug-In . SVG Version: 6.00 Build 0)  -->
<svg version="1.1" id="Шар_1" xmlns="http://www.w3.org/2000/svg" xmlns:xlink="http://www.w3.org/1999/xlink" x="0px" y="0px"
	 viewBox="0 0 16 16" style="enable-background:new 0 0 16 16;" xml:space="preserve">
<style type="text/css">
	.st0{fill:#FFFFFF;}
</style>
<g>
	<path class="st0" d="M4.8,4.3L3.4,2.9c0.5-0.7,1.1-1.2,2-1.6s1.8-0.6,2.8-0.6l0,1.9C7.6,2.6,7,2.8,6.4,3.1C5.8,3.4,5.2,3.8,4.8,4.3
		z M7.9,15.2c-0.4,0-0.8-0.1-1-0.4c-0.3-0.3-0.4-0.6-0.4-1c0-0.4,0.1-0.8,0.4-1c0.3-0.3,0.6-0.4,1-0.4c0.4,0,0.8,0.1,1,0.4
		c0.3,0.3,0.4,0.6,0.4,1c0,0.4-0.1,0.8-0.4,1C8.6,15.1,8.3,15.2,7.9,15.2z M6.9,10.5v-1c0-0.7,0.1-1.2,0.4-1.7
		C7.5,7.3,8,6.9,8.5,6.5C9,6.2,9.4,5.9,9.7,5.5c0.3-0.4,0.4-0.8,0.4-1.3c0-0.5-0.2-0.9-0.5-1.2C9.3,2.7,8.8,2.6,8.2,2.6l0-1.9
		c1.3,0,2.3,0.3,3,0.9c0.7,0.6,1.1,1.4,1.1,2.5c0,0.7-0.2,1.4-0.6,2c-0.4,0.6-0.9,1.1-1.7,1.6C9.7,8,9.4,8.3,9.1,8.6
		C8.9,8.9,8.8,9.3,8.8,9.7v0.8H6.9z"/>
</g>
</svg>
